<svg width="130" height="361" viewBox="0 0 130 361" fill="none" xmlns="http://www.w3.org/2000/svg">
<path d="M76.8677 308.51C77.2308 304.69 80.6218 301.888 84.4416 302.251C88.2232 302.611 91.0075 305.938 90.7105 309.711L90.7006 309.825L87.4841 343.662C87.121 347.482 83.73 350.284 79.9102 349.921C76.1286 349.562 73.3443 346.235 73.6413 342.462L73.6513 342.347L76.8677 308.51Z" fill="#C5C5C5"/>
<path d="M45.5582 302.251C49.3398 301.892 52.7011 304.635 53.1203 308.396L53.1321 308.51L56.3486 342.347C56.7117 346.167 53.9094 349.558 50.0896 349.921C46.308 350.281 42.9467 347.538 42.5275 343.777L42.5157 343.662L39.2993 309.825C38.9362 306.005 41.7384 302.614 45.5582 302.251Z" fill="#C5C5C5"/>
<path d="M12.9356 359.545C12.8847 353.707 13.6837 350.153 18.7818 347.768C23.8799 345.38 28.6821 340.792 37.5019 336.858C37.5019 336.858 38.6629 336.641 40.5527 337.658C42.1653 338.528 44.2364 340.658 47.3577 340.63C50.7468 340.599 53.767 339.886 55.6433 338.903C56.4541 336.693 58.2525 336.677 58.2525 336.677C58.2525 336.677 60.7848 341.476 60.8267 346.299C60.8689 351.118 60.8643 359.126 60.8643 359.126L12.9356 359.545Z" fill="#C5C5C5"/>
<path d="M35.6596 337.204C36.0109 337.048 36.4228 337.205 36.5795 337.557C37.0812 338.681 37.1933 339.744 37.1929 341.561C37.1928 342.049 36.7064 342.381 36.257 342.215L36.2162 342.199L32.8559 340.723L33.5708 343.303C33.715 343.823 33.2397 344.296 32.7272 344.164L32.6867 344.152L29.3072 343.067L29.3074 346.106C29.3074 346.618 28.7751 346.95 28.3191 346.738L28.2802 346.719L25.987 345.482L25.987 347.76C25.987 348.131 25.6978 348.433 25.3329 348.455L25.2904 348.457C24.92 348.457 24.6171 348.167 24.5952 347.802L24.5939 347.76L24.5941 344.315C24.5941 343.802 25.1264 343.47 25.5824 343.682L25.6213 343.702L27.9141 344.938L27.9143 342.112C27.9143 341.655 28.3459 341.326 28.7816 341.437L28.8237 341.449L31.8837 342.431L31.1216 339.681C30.9685 339.128 31.5093 338.644 32.0354 338.842L32.073 338.857L35.7793 340.485L35.7758 340.406C35.7295 339.487 35.608 338.83 35.3414 338.202L35.3073 338.124C35.1506 337.773 35.3083 337.361 35.6596 337.204Z" fill="#C5C5C5"/>
<path d="M59.3233 339.217C58.3388 340.55 54.7886 341.345 53.4528 341.541C52.1173 341.736 50.6861 341.564 51.2587 343.764C51.6637 345.318 55.5556 344.69 57.0774 344.677C58.3146 344.667 60.0497 348.391 60.6958 347.125C60.6958 342.799 59.8765 340.457 59.3233 339.217Z" fill="#C5C5C5"/>
<path d="M14.8647 348.213C16.4288 347.649 18.0852 347.222 21.261 346.504L19.9113 350.374L19.9497 354.782L10.9106 354.859C10.5417 354.865 9.88253 354.373 10.1972 352.387C10.5906 349.904 12.6422 349.016 14.8647 348.213Z" fill="#C5C5C5"/>
<path d="M29.83 347.406L34.0408 355.398L30.0969 357.476L25.8862 349.483L29.83 347.406Z" fill="#C5C5C5"/>
<path d="M35.6328 344.382L40.6785 353.985L36.7324 356.058L31.6866 346.455L35.6328 344.382Z" fill="#C5C5C5"/>
<path d="M41.3229 341.055L48.2993 354.59L44.3369 356.632L37.3605 343.097L41.3229 341.055Z" fill="#C5C5C5"/>
<path d="M61.0148 358.362L60.7534 353.738L20.2228 354.365L10.1169 353.627L9.81039 357.157C9.70252 358.4 10.6342 359.489 11.8779 359.574L20.2732 360.153L59.9194 359.538C60.5529 359.527 61.0506 358.992 61.0148 358.362Z" fill="#C5C5C5"/>
<path d="M117.064 359.545C117.115 353.707 116.316 350.153 111.218 347.768C106.12 345.38 101.318 340.792 92.4979 336.858C92.4979 336.858 91.3369 336.641 89.4471 337.658C87.8345 338.528 85.7634 340.658 82.6421 340.63C79.253 340.599 76.2328 339.886 74.3565 338.903C73.5457 336.693 71.7473 336.677 71.7473 336.677C71.7473 336.677 69.215 341.476 69.1731 346.299C69.1309 351.118 69.1355 359.126 69.1355 359.126L117.064 359.545Z" fill="#C5C5C5"/>
<path d="M93.4204 337.557C93.5771 337.205 93.989 337.048 94.3403 337.204C94.6916 337.361 94.8493 337.773 94.6926 338.124C94.4021 338.775 94.2723 339.449 94.2241 340.406L94.2202 340.485L97.9269 338.857C98.452 338.627 99.0086 339.093 98.8881 339.642L98.8783 339.681L98.116 342.431L101.176 341.449C101.612 341.309 102.057 341.619 102.084 342.068L102.086 342.112L102.085 344.938L104.379 343.702C104.83 343.458 105.375 343.769 105.404 344.271L105.406 344.315L105.406 347.76C105.406 348.145 105.094 348.457 104.71 348.457C104.339 348.457 104.036 348.167 104.014 347.803L104.013 347.76L104.012 345.482L101.72 346.719C101.269 346.962 100.724 346.651 100.694 346.149L100.693 346.106L100.692 343.067L97.3132 344.152C96.7992 344.317 96.307 343.861 96.419 343.344L96.4291 343.303L97.1439 340.723L93.7837 342.199C93.337 342.395 92.8375 342.083 92.8084 341.605L92.807 341.561L92.808 341.265C92.8202 339.625 92.9466 338.619 93.4204 337.557Z" fill="#C5C5C5"/>
<path d="M70.6766 339.217C71.6611 340.55 75.2113 341.345 76.5471 341.541C77.8825 341.736 79.3137 341.564 78.7412 343.764C78.3362 345.318 74.4443 344.69 72.9225 344.677C71.6853 344.667 69.9502 348.391 69.3041 347.125C69.3041 342.799 70.1234 340.457 70.6766 339.217Z" fill="#C5C5C5"/>
<path d="M115.135 348.213C113.571 347.649 111.915 347.222 108.739 346.504L110.088 350.374L110.05 354.782L119.089 354.859C119.458 354.865 120.117 354.373 119.803 352.387C119.409 349.904 117.358 349.016 115.135 348.213Z" fill="#C5C5C5"/>
<path d="M100.17 347.406L104.114 349.483L99.9029 357.476L95.9591 355.398L100.17 347.406Z" fill="#C5C5C5"/>
<path d="M94.3672 344.382L98.3133 346.455L93.2676 356.058L89.3214 353.985L94.3672 344.382Z" fill="#C5C5C5"/>
<path d="M88.6769 341.055L92.6393 343.097L85.6629 356.632L81.7005 354.59L88.6769 341.055Z" fill="#C5C5C5"/>
<path d="M68.985 358.362L69.2465 353.738L109.777 354.365L119.883 353.627L120.189 357.157C120.297 358.4 119.366 359.489 118.122 359.574L109.726 360.153L70.0804 359.538C69.4469 359.527 68.9493 358.992 68.985 358.362Z" fill="#C5C5C5"/>
<path d="M64.9999 251.657C81.343 251.657 94.5915 244.86 94.5915 236.475C94.5915 228.09 81.343 221.293 64.9999 221.293C48.6569 221.293 35.4084 228.09 35.4084 236.475C35.4084 244.86 48.6569 251.657 64.9999 251.657Z" fill="#C5C5C5"/>
<path d="M66.2865 230.3H101.024L95.9795 321.002L92.6457 330.216L73.1556 331.94L71.2934 323.063L66.2865 230.3Z" fill="#C5C5C5"/>
<path d="M71.4329 329.882H93.3049L92.2381 335.543H72.4313L71.4329 329.882Z" fill="#C5C5C5"/>
<path d="M63.7134 230.3H28.9754L34.0204 321.002L37.3542 330.216L56.8443 331.94L58.7065 323.063L63.7134 230.3Z" fill="#C5C5C5"/>
<path d="M58.567 329.882H36.6949L37.7618 335.543H57.5686L58.567 329.882Z" fill="#C5C5C5"/>
<path d="M94.5552 240.378C96.1755 239.966 99.8523 237.677 100.475 238.063C102.189 239.863 101.099 285.649 100.164 287.064C99.2289 288.479 91.2837 288.994 91.2837 287.064C91.2837 285.134 91.128 278.446 91.2837 273.174C91.4393 267.901 88.791 241.535 90.0375 241.15C91.2837 240.764 92.5301 240.892 94.5552 240.378Z" fill="#C5C5C5"/>
<path d="M92.5301 242.307C93.7763 242.178 98.9175 240.378 100.475 239.22C101.566 240.378 103.435 248.352 101.41 249.38C99.3848 250.409 94.0879 250.281 93.4647 249.38C92.8415 248.48 91.2836 242.435 92.5301 242.307Z" fill="#C5C5C5"/>
<path fill-rule="evenodd" clip-rule="evenodd" d="M92.8712 243.748L93.1231 243.695C93.2177 244.151 93.3321 244.682 93.4486 245.203L93.1975 245.259C93.1099 244.867 93.0235 244.47 92.9457 244.103L92.8712 243.748ZM93.5485 246.765L93.7985 246.704C93.9392 247.278 94.0625 247.74 94.1628 248.062L94.2017 248.183L93.9574 248.264C93.8674 247.992 93.7575 247.597 93.6316 247.099L93.5485 246.765ZM95.3045 249.034C95.7651 249.1 96.3052 249.146 96.8571 249.164L96.8655 248.907C96.3228 248.889 95.7921 248.844 95.3411 248.779L95.3045 249.034ZM99.9667 248.888C99.5179 249.009 98.9948 249.09 98.4183 249.134L98.3988 248.878C98.9604 248.835 99.468 248.756 99.8998 248.64L99.9667 248.888Z" fill="#C5C5C5"/>
<path fill-rule="evenodd" clip-rule="evenodd" d="M100.104 238.72L100.223 238.949C99.9536 239.089 99.6488 239.244 99.3298 239.405L98.8431 239.647L98.7291 239.416C99.1107 239.228 99.4871 239.038 99.825 238.865L100.104 238.72ZM97.3405 240.085L97.4494 240.318C96.923 240.564 96.446 240.777 96.0345 240.949L95.9353 240.712C96.2616 240.575 96.6301 240.413 97.0325 240.228L97.3405 240.085ZM94.5463 241.442L94.497 241.19L94.3231 241.223C93.9597 241.292 93.5042 241.37 92.9803 241.456L93.0219 241.71L93.4032 241.647C93.8526 241.571 94.2396 241.502 94.5463 241.442ZM90.6794 241.811L91.4564 241.696L91.4949 241.95L90.9533 242.031L91.008 242.787L90.7513 242.806L90.6794 241.811ZM90.8622 244.345L90.9729 245.885L91.2296 245.867L91.1189 244.327L90.8622 244.345ZM91.1937 248.966L91.0835 247.426L91.3401 247.407L91.4504 248.948L91.1937 248.966ZM91.3036 250.505L91.4132 252.044L91.6699 252.026L91.5603 250.486L91.3036 250.505ZM91.6316 255.125L91.5226 253.585L91.7793 253.567L91.8883 255.107L91.6316 255.125ZM91.74 256.665L91.848 258.205L92.1047 258.187L91.9967 256.647L91.74 256.665ZM92.0613 261.286L91.9552 259.746L92.2119 259.728L92.318 261.268L92.0613 261.286ZM92.1655 262.825L92.2458 264.05C92.2521 264.15 92.2583 264.254 92.2642 264.364L92.5211 264.351L92.5089 264.136L92.4223 262.808L92.1655 262.825ZM92.3237 265.904L92.581 265.896C92.5875 266.131 92.5934 266.377 92.5989 266.635L92.6136 267.442L92.3563 267.446C92.3508 267.096 92.3446 266.764 92.3375 266.45L92.3237 265.904ZM92.6315 268.988L92.3742 268.99L92.3805 270.003C92.3813 270.177 92.382 270.354 92.3825 270.533L92.6398 270.533L92.6366 269.742C92.6352 269.485 92.6335 269.233 92.6315 268.988ZM92.3838 272.076L92.6411 272.077C92.6409 272.277 92.6405 272.479 92.6401 272.684L92.6371 273.621L92.3797 273.62L92.3809 273.304L92.3838 272.076ZM92.3714 275.163L92.3595 276.707L92.6168 276.709L92.6287 275.165L92.3714 275.163ZM92.3269 279.794L92.3445 278.251L92.6018 278.253L92.5842 279.798L92.3269 279.794ZM92.3069 281.337L92.2849 282.88L92.5422 282.884L92.5642 281.34L92.3069 281.337ZM92.2613 284.424L92.5185 284.429C92.5067 285.189 92.5033 285.415 92.5029 285.504L92.5044 285.551C92.5125 285.639 92.553 285.759 92.6236 285.886L92.3985 286.011C92.2995 285.833 92.2455 285.658 92.2455 285.52L92.2613 284.424ZM93.6518 287.042C94.0993 287.219 94.6246 287.309 95.2254 287.298L95.2207 287.041C94.6531 287.051 94.1616 286.967 93.7466 286.802L93.6518 287.042ZM98.2565 286.591C97.7338 286.802 97.2394 286.964 96.773 287.079L96.711 286.83C97.1654 286.717 97.6484 286.558 98.1603 286.352L98.2565 286.591Z" fill="#C5C5C5"/>
<path d="M35.4446 240.378C33.8243 239.966 30.1475 237.677 29.5245 238.063C27.8108 239.863 28.9013 285.649 29.8361 287.064C30.771 288.479 38.7162 288.994 38.7162 287.064C38.7162 285.134 38.8719 278.446 38.7162 273.174C38.5605 267.901 41.2088 241.535 39.9624 241.15C38.7162 240.764 37.4697 240.892 35.4446 240.378Z" fill="#C5C5C5"/>
<path d="M37.4698 242.307C36.2236 242.178 31.0824 240.378 29.5246 239.22C28.434 240.378 26.5646 248.352 28.5897 249.38C30.6151 250.409 35.912 250.281 36.5352 249.38C37.1584 248.48 38.7162 242.435 37.4698 242.307Z" fill="#C5C5C5"/>
<path fill-rule="evenodd" clip-rule="evenodd" d="M36.8767 243.695L37.1287 243.748C37.0694 244.033 37.0024 244.348 36.9319 244.672L36.8024 245.259L36.5513 245.203C36.6386 244.812 36.7248 244.416 36.8024 244.05L36.8767 243.695ZM36.2014 246.704L36.4514 246.765C36.3093 247.345 36.1847 247.812 36.0823 248.14L36.0425 248.264L35.7982 248.183C35.8797 247.937 35.9791 247.583 36.0927 247.139L36.2014 246.704ZM34.6587 248.779C34.2077 248.844 33.677 248.889 33.1344 248.907L33.1427 249.164C33.6947 249.146 34.2347 249.1 34.6953 249.034L34.6587 248.779ZM30.1001 248.64C30.5319 248.756 31.0395 248.835 31.6011 248.878L31.5816 249.134C31.005 249.09 30.482 249.009 30.0332 248.888L30.1001 248.64Z" fill="#C5C5C5"/>
<path fill-rule="evenodd" clip-rule="evenodd" d="M29.7768 238.949L29.8955 238.72C30.2087 238.883 30.5699 239.067 30.9457 239.255L31.2708 239.416L31.1568 239.647C30.8287 239.485 30.5044 239.322 30.2049 239.169L29.7768 238.949ZM32.5504 240.318L32.6594 240.085C33.1828 240.33 33.6567 240.541 34.0645 240.712L33.9654 240.949C33.6362 240.812 33.2651 240.648 32.8602 240.462L32.5504 240.318ZM35.5029 241.19L35.4535 241.442L35.8191 241.511C36.1489 241.571 36.5397 241.638 36.978 241.71L37.0195 241.456L36.5193 241.373C36.1229 241.305 35.7795 241.244 35.5029 241.19ZM39.0466 242.031L38.505 241.95L38.5435 241.696L39.3205 241.811L39.2486 242.806L38.9919 242.787L39.0466 242.031ZM38.8809 244.327L38.7702 245.867L39.0268 245.885L39.1375 244.346L38.8809 244.327ZM38.5495 248.948L38.6597 247.407L38.9164 247.426L38.8062 248.966L38.5495 248.948ZM38.4396 250.486L38.33 252.026L38.5867 252.044L38.6963 250.505L38.4396 250.486ZM38.1116 255.107L38.2206 253.567L38.4772 253.585L38.3683 255.125L38.1116 255.107ZM38.0031 256.647L37.8951 258.187L38.1518 258.205L38.2598 256.665L38.0031 256.647ZM37.6818 261.268L37.7879 259.728L38.0446 259.746L37.9385 261.286L37.6818 261.268ZM37.5775 262.808L37.4973 264.033L37.4787 264.351L37.7356 264.364L37.7541 264.05L37.8343 262.825L37.5775 262.808ZM37.4188 265.897L37.6761 265.904C37.6679 266.196 37.6607 266.507 37.6542 266.836L37.6435 267.446L37.3862 267.442C37.3928 267.022 37.4005 266.626 37.4095 266.257L37.4188 265.897ZM37.6256 268.99L37.3683 268.988L37.3647 269.487C37.3626 269.825 37.3611 270.174 37.36 270.533L37.6173 270.533L37.6221 269.488C37.6231 269.319 37.6243 269.153 37.6256 268.99ZM37.3587 272.077L37.616 272.076L37.6164 272.378L37.62 273.62L37.3627 273.621L37.3615 273.305L37.3587 272.077ZM37.3711 275.165L37.383 276.709L37.6403 276.707L37.6284 275.163L37.3711 275.165ZM37.4157 279.798L37.398 278.253L37.6554 278.251L37.673 279.794L37.4157 279.798ZM37.4356 281.34L37.4577 282.884L37.715 282.88L37.6929 281.337L37.4356 281.34ZM37.4813 284.429L37.7386 284.424C37.7497 285.137 37.7534 285.38 37.7541 285.483L37.7523 285.567C37.7417 285.697 37.6893 285.852 37.6014 286.011L37.3763 285.886C37.4556 285.743 37.497 285.609 37.497 285.52L37.4813 284.429ZM36.2534 286.802C35.8383 286.967 35.3468 287.051 34.7793 287.041L34.7746 287.298C35.3754 287.309 35.9007 287.219 36.3481 287.042L36.2534 286.802ZM31.8396 286.352C32.3514 286.558 32.8344 286.717 33.2888 286.83L33.2269 287.079C32.7605 286.964 32.2661 286.802 31.7433 286.591L31.8396 286.352Z" fill="#C5C5C5"/>
<path d="M26.8586 136.847C29.4421 132.267 35.249 130.649 39.8288 133.232C44.4085 135.816 46.0268 141.623 43.4434 146.203C38.7076 154.598 33.7512 170.182 30.4616 186.564C28.9146 194.269 27.8544 201.601 27.4227 207.563L27.3861 208.088C27.2116 210.69 27.1656 212.955 27.2451 214.795L27.2534 214.977C27.2947 215.828 27.3625 216.557 27.4503 217.146L27.4681 217.262C27.5323 217.667 27.5946 217.931 27.6252 218.025L27.6302 218.04C29.4272 222.981 26.8779 228.444 21.9363 230.241C16.9947 232.038 11.5321 229.489 9.73511 224.547C6.94077 216.863 8.06011 201.404 11.7928 182.816C15.4428 164.638 20.9504 147.321 26.8586 136.847Z" fill="#C5C5C5"/>
<path d="M90.1711 133.232C94.7508 130.649 100.558 132.267 103.141 136.847C109.049 147.321 114.557 164.638 118.207 182.816C121.94 201.404 123.059 216.863 120.265 224.547C118.468 229.489 113.005 232.038 108.064 230.241C103.171 228.462 100.624 223.09 102.317 218.188L102.37 218.04C102.398 217.962 102.464 217.69 102.532 217.262C102.622 216.691 102.693 215.98 102.738 215.146L102.746 214.977C102.843 212.985 102.788 210.475 102.577 207.563L102.531 206.952C102.073 201.104 101.033 194.007 99.5382 186.564C96.2487 170.182 91.2922 154.598 86.5565 146.203C83.973 141.623 85.5913 135.816 90.1711 133.232Z" fill="#C5C5C5"/>
<path d="M110.638 131.277C106.75 120.594 94.9369 115.085 84.2535 118.974C73.5702 122.862 68.0618 134.675 71.9501 145.359L91.312 198.554L130 184.473L110.638 131.277Z" fill="#C5C5C5"/>
<path d="M19.3617 131.277C23.2502 120.594 35.0631 115.085 45.7464 118.974C56.4297 122.862 61.9381 134.675 58.0498 145.359L38.6879 198.554L0 184.473L19.3617 131.277Z" fill="#C5C5C5"/>
<path d="M26.9607 132.927C26.6408 126.496 31.1241 120.82 37.4536 119.64L65 114.507L92.5464 119.64C98.8759 120.82 103.359 126.496 103.039 132.927L101.025 173.432L103.48 229.415C103.544 230.879 102.375 232.101 100.909 232.101H29.0908C27.6253 232.101 26.4558 230.879 26.5202 229.415L28.9755 173.432L26.9607 132.927Z" fill="#C5C5C5"/>
<mask id="mask0" mask-type="alpha" maskUnits="userSpaceOnUse" x="0" y="114" width="130" height="119">
<path fill-rule="evenodd" clip-rule="evenodd" d="M28.0435 194.68L6.10352e-05 184.473L19.3618 131.277C23.0384 121.176 33.7997 115.701 43.992 118.422L65 114.507L86.0079 118.422C96.2003 115.701 106.962 121.176 110.638 131.277L130 184.473L101.956 194.68L103.48 229.415C103.544 230.879 102.375 232.101 100.909 232.101H29.0907C27.6253 232.101 26.4558 230.879 26.5201 229.415L28.0435 194.68Z" fill="white"/>
</mask>
<g mask="url(#mask0)">
<path d="M111.594 126.807L113.614 131.54L93.8309 139.981H36.169L16.3863 131.54L18.4059 126.807L37.2209 134.835H92.7787L111.594 126.807Z" fill="#C5C5C5"/>
<path d="M119.283 145.347L121.364 150.054L96.4215 161.081H33.5783L8.63603 150.054L10.717 145.347L34.6657 155.935H95.3338L119.283 145.347Z" fill="#C5C5C5"/>
<path d="M126.983 163.883L129.103 168.572L99.006 182.181H30.9939L0.896851 168.572L3.01721 163.883L32.1034 177.035H97.8962L126.983 163.883Z" fill="#C5C5C5"/>
<path d="M103.598 197.62V202.767H26.4022V197.62H103.598Z" fill="#C5C5C5"/>
<path d="M103.598 218.206V223.352H26.4022V218.206H103.598Z" fill="#C5C5C5"/>
</g>
<rect x="54.7072" y="78.9966" width="20.5854" height="50.177" rx="10.2927" fill="#C5C5C5"/>
<path d="M54.7072 117.594C54.7072 111.91 59.3153 107.302 64.9999 107.302C70.6843 107.302 75.2926 111.91 75.2926 117.594V118.881C75.2926 124.565 70.6843 129.174 64.9999 129.174C59.3153 129.174 54.7072 124.565 54.7072 118.881V117.594Z" fill="#C5C5C5"/>
<path d="M102.311 75.1371C107.996 75.1371 112.604 70.5288 112.604 64.8443C112.604 59.1599 107.996 54.5516 102.311 54.5516C96.6267 54.5516 92.0184 59.1599 92.0184 64.8443C92.0184 70.5288 96.6267 75.1371 102.311 75.1371Z" fill="#C5C5C5"/>
<path d="M27.6888 75.1371C22.0043 75.1371 17.3961 70.5288 17.3961 64.8443C17.3961 59.1599 22.0043 54.5516 27.6888 54.5516C33.3732 54.5516 37.9815 59.1599 37.9815 64.8443C37.9815 70.5288 33.3732 75.1371 27.6888 75.1371Z" fill="#C5C5C5"/>
<path d="M26.4022 39.627C26.4022 18.31 43.6829 1.02927 64.9999 1.02927C86.3169 1.02927 103.598 18.31 103.598 39.627V70.5051C103.598 91.8221 86.3169 109.103 64.9999 109.103C43.6829 109.103 26.4022 91.8221 26.4022 70.5051V39.627Z" fill="#C5C5C5"/>
<path d="M104.884 39.3699L102.826 27.0184H94.5915L95.8781 38.5977C95.8781 38.5977 99.5135 43.0241 101.024 46.3172C103.491 51.6929 103.598 61.2417 103.598 61.2417L104.884 39.3699Z" fill="#C5C5C5"/>
<path d="M25.1156 39.3699L27.1742 27.0184H35.4083L34.1218 38.5977C34.1218 38.5977 30.4864 43.0241 28.9754 46.3172C26.5087 51.6929 26.4022 61.2417 26.4022 61.2417L25.1156 39.3699Z" fill="#C5C5C5"/>
<path fill-rule="evenodd" clip-rule="evenodd" d="M65.0508 0C76.5051 0.0433776 107.793 6.04697 104.961 39.3696C102.994 36.7909 100.334 35.1515 97.5708 33.6116L97.327 39.1725L81.9291 29.8697L85.5956 38.6129L68.2642 30.4546L62.1694 38.6129L41.1033 33.2172L30.6479 42.2001L31.9817 34.6815C29.7362 36.0074 27.4811 37.5058 25.1402 39.3696C21.5353 7.46222 53.4893 0.0433794 64.9428 0H65.0508Z" fill="#C5C5C5"/>
<path d="M90.2171 44.516C91.4961 44.516 92.5329 45.5529 92.5329 46.8319C92.5329 48.0881 91.5328 49.1106 90.2854 49.1468L90.2171 49.1477H75.8073C74.5282 49.1477 73.4914 48.1109 73.4914 46.8319C73.4914 45.5757 74.4915 44.5531 75.739 44.517L75.8073 44.516H90.2171Z" fill="#C5C5C5"/>
<path d="M54.1926 44.516C55.4716 44.516 56.5085 45.5529 56.5085 46.8319C56.5085 48.0881 55.5083 49.1106 54.2609 49.1468L54.1926 49.1477H39.7828C38.5038 49.1477 37.4669 48.1109 37.4669 46.8319C37.4669 45.5757 38.4671 44.5531 39.7145 44.517L39.7828 44.516H54.1926Z" fill="#C5C5C5"/>
<path d="M85.0708 54.5514C86.3498 54.5514 87.3867 55.5883 87.3867 56.8673C87.3867 58.1234 86.3865 59.146 85.1391 59.1821L85.0708 59.1831H77.3513C76.0722 59.1831 75.0354 58.1463 75.0354 56.8673C75.0354 55.6111 76.0355 54.5885 77.283 54.5524L77.3513 54.5514H85.0708Z" fill="#C5C5C5"/>
<path d="M52.6487 54.5514C53.9278 54.5514 54.9646 55.5883 54.9646 56.8673C54.9646 58.1234 53.9645 59.146 52.717 59.1821L52.6487 59.1831H44.9292C43.6502 59.1831 42.6133 58.1463 42.6133 56.8673C42.6133 55.6111 43.6135 54.5885 44.8609 54.5524L44.9292 54.5514H52.6487Z" fill="#C5C5C5"/>
<path d="M74.2992 85.7739C75.246 85.2253 76.4582 85.548 77.0069 86.4947C77.5443 87.4221 77.2456 88.6043 76.3433 89.1679L76.2861 89.2023C76.2371 89.2307 76.1663 89.2697 76.0741 89.318L76.0261 89.3429C75.8502 89.4336 75.646 89.5323 75.4141 89.6366C74.7729 89.9252 74.0266 90.2101 73.1791 90.4736C70.7962 91.2146 68.0579 91.6566 65 91.6566C61.942 91.6566 59.2037 91.2146 56.8208 90.4736C55.9733 90.2101 55.227 89.9252 54.5858 89.6366C54.3925 89.5497 54.2185 89.4667 54.0641 89.3889L53.9738 89.3429C53.8578 89.283 53.771 89.2354 53.7138 89.2023C52.7671 88.6537 52.4444 87.4414 52.993 86.4947C53.5305 85.5673 54.7047 85.2387 55.6424 85.7414L55.7549 85.8037C55.8321 85.8447 55.9656 85.9111 56.1537 85.9968L56.2118 86.0231C56.7097 86.2472 57.3063 86.4749 57.9974 86.6898C60.0104 87.3158 62.3541 87.6941 65 87.6941C67.6458 87.6941 69.9895 87.3158 72.0025 86.6898C72.6404 86.4915 73.1978 86.2821 73.6714 86.0749L73.7881 86.0231C74.0071 85.9246 74.16 85.8488 74.245 85.8037L74.2992 85.7739Z" fill="#C5C5C5"/>
<path d="M62.6655 61.0578L66.3052 63.4842C65.0681 65.3398 64.0993 68.1252 64.0992 70.1514C64.0992 72.1052 64.8047 72.9265 66.9648 72.9492L67.0583 72.9497V77.3241C62.2868 77.3241 59.7247 74.4417 59.7248 70.1513C59.7249 67.2449 60.9341 63.7168 62.5755 61.1943L62.6655 61.0578Z" fill="#C5C5C5"/>
</svg>
